<svg xmlns="http://www.w3.org/2000/svg" version="1.1" xmlns:xlink="http://www.w3.org/1999/xlink" width="200" height="200"><svg xmlns="http://www.w3.org/2000/svg" version="1.1" xmlns:xlink="http://www.w3.org/1999/xlink" viewBox="0 0 200 200"><rect width="200" height="200" fill="url('#gradient')"></rect><defs><linearGradient id="SvgjsLinearGradient1001" gradientTransform="rotate(127 0.5 0.5)"><stop offset="0%" stop-color="#f1eee5"></stop><stop offset="100%" stop-color="#d5c3a1"></stop></linearGradient></defs><g><g fill="#1d425b" transform="matrix(2.9261787585331005,0,0,2.9261787585331005,10.090620200380215,120.51423136971076)" stroke="#778ca7" stroke-width="0.4"><path d="M9.98 0L9.15-2.66L4.45-2.66L3.63 0L-0.03 0L5.19-14.22L8.41-14.22L13.66 0L9.98 0ZM6.80-10.23L5.27-5.30L8.33-5.30L6.80-10.23ZM20.08-2.97L20.08-2.97Q20.08-3.39 19.64-3.64Q19.20-3.90 17.97-4.17Q16.74-4.44 15.94-4.89Q15.14-5.33 14.72-5.97Q14.30-6.60 14.30-7.42L14.30-7.42Q14.30-8.88 15.50-9.82Q16.70-10.76 18.64-10.76L18.64-10.76Q20.73-10.76 22.00-9.81Q23.27-8.87 23.27-7.32L23.27-7.32L19.97-7.32Q19.97-8.59 18.63-8.59L18.63-8.59Q18.12-8.59 17.76-8.31Q17.41-8.02 17.41-7.59L17.41-7.59Q17.41-7.15 17.84-6.88Q18.27-6.60 19.21-6.43Q20.16-6.25 20.87-6.01L20.87-6.01Q23.25-5.19 23.25-3.07L23.25-3.07Q23.25-1.62 21.97-0.71Q20.68 0.20 18.64 0.20L18.64 0.20Q17.29 0.20 16.22-0.29Q15.16-0.78 14.56-1.62Q13.96-2.46 13.96-3.39L13.96-3.39L17.04-3.39Q17.06-2.66 17.53-2.32Q18.00-1.98 18.73-1.98L18.73-1.98Q19.40-1.98 19.74-2.26Q20.08-2.53 20.08-2.97ZM30.32-2.97L30.32-2.97Q30.32-3.39 29.88-3.64Q29.44-3.90 28.21-4.17Q26.98-4.44 26.18-4.89Q25.38-5.33 24.96-5.97Q24.54-6.60 24.54-7.42L24.54-7.42Q24.54-8.88 25.74-9.82Q26.94-10.76 28.89-10.76L28.89-10.76Q30.98-10.76 32.25-9.81Q33.52-8.87 33.52-7.32L33.52-7.32L30.21-7.32Q30.21-8.59 28.88-8.59L28.88-8.59Q28.36-8.59 28.01-8.31Q27.66-8.02 27.66-7.59L27.66-7.59Q27.66-7.15 28.09-6.88Q28.52-6.60 29.46-6.43Q30.40-6.25 31.11-6.01L31.11-6.01Q33.50-5.19 33.50-3.07L33.50-3.07Q33.50-1.62 32.21-0.71Q30.93 0.20 28.89 0.20L28.89 0.20Q27.53 0.20 26.46-0.29Q25.40-0.78 24.80-1.62Q24.21-2.46 24.21-3.39L24.21-3.39L27.29-3.39Q27.30-2.66 27.77-2.32Q28.24-1.98 28.97-1.98L28.97-1.98Q29.65-1.98 29.99-2.26Q30.32-2.53 30.32-2.97ZM40.15 0.20L40.15 0.20Q37.71 0.20 36.21-1.25Q34.71-2.71 34.71-5.03L34.71-5.03L34.71-5.30Q34.71-6.92 35.31-8.16Q35.91-9.40 37.06-10.08Q38.21-10.76 39.79-10.76L39.79-10.76Q42.02-10.76 43.31-9.38Q44.60-8.00 44.60-5.53L44.60-5.53L44.60-4.25L38.06-4.25Q38.23-3.36 38.83-2.85Q39.42-2.34 40.37-2.34L40.37-2.34Q41.93-2.34 42.81-3.44L42.81-3.44L44.32-1.66Q43.70-0.81 42.57-0.31Q41.45 0.20 40.15 0.20ZM39.78-8.22L39.78-8.22Q38.33-8.22 38.06-6.31L38.06-6.31L41.38-6.31L41.38-6.56Q41.40-7.35 40.98-7.79Q40.56-8.22 39.78-8.22ZM46.46-13.19L49.76-13.19L49.76-10.57L51.49-10.57L51.49-8.28L49.76-8.28L49.76-3.45Q49.76-2.85 49.97-2.62Q50.19-2.38 50.82-2.38L50.82-2.38Q51.31-2.38 51.64-2.44L51.64-2.44L51.64-0.09Q50.75 0.20 49.79 0.20L49.79 0.20Q48.09 0.20 47.28-0.61Q46.46-1.41 46.46-3.04L46.46-3.04L46.46-8.28L45.12-8.28L45.12-10.57L46.46-10.57L46.46-13.19ZM61.38-8.79L56.67-2.54L61.48-2.54L61.48 0L52.51 0L52.51-1.84L57.20-8.03L52.71-8.03L52.71-10.57L61.38-10.57L61.38-8.79Z"></path></g></g></svg><style>@media (prefers-color-scheme: light) { :root { filter: none; } }
@media (prefers-color-scheme: dark) { :root { filter: none; } }
</style></svg>